<?xml version="1.0" standalone="no"?><!DOCTYPE svg PUBLIC "-//W3C//DTD SVG 1.1//EN" "http://www.w3.org/Graphics/SVG/1.1/DTD/svg11.dtd"><svg t="1678005170489" class="icon" viewBox="0 0 1024 1024" version="1.1" xmlns="http://www.w3.org/2000/svg" p-id="31599" xmlns:xlink="http://www.w3.org/1999/xlink" width="128" height="128"><path d="M950.857143 0a73.142857 73.142857 0 0 1 73.142857 73.142857v877.714286a73.142857 73.142857 0 0 1-73.142857 73.142857H73.142857a73.142857 73.142857 0 0 1-73.142857-73.142857V73.142857a73.142857 73.142857 0 0 1 73.142857-73.142857h877.714286z" fill="#00A6AB" p-id="31600"></path><path d="M354.157714 368.786286a143.213714 143.213714 0 0 0 286.427429 0 143.213714 143.213714 0 0 0-286.427429 0zM596.333714 551.058286H398.409143c-96.329143 0-174.445714 88.502857-174.445714 195.291428v52.077715h546.816v-52.077715c0-106.788571-78.116571-195.291429-174.445715-195.291428z" fill="#FFFFFF" p-id="31601"></path></svg>